<?xml version="1.0" encoding="utf-8"?>
<svg xmlns="http://www.w3.org/2000/svg" version="1.1" viewBox="0 0 500 500">
	<title>A left-handed interlaced, five-pointed star enclosed in a circle.</title>
	<path d="m236.76 499.63c-44.712-2.652-82.972-15.127-121.79-39.709-3.463-2.193-6.701-3.735-7.195-3.426-0.494 0.31-5.196 3.817-10.449 7.795-5.2532 3.978-9.7603 7.232-10.016 7.232-0.6112 0 0.1384-2.062 4.6401-12.766 5.6222-13.369 5.876-11.534-2.6044-18.833-23.777-20.465-44.828-48.029-58.637-76.778-15.932-33.171-23.976-73.247-21.882-109.02 1.469-25.087 5.0255-43.938 12.449-65.983 3.9155-11.627 4.1006-12.503 2.8616-13.538-0.7285-0.608-6.3688-4.859-12.534-9.446-6.1651-4.588-11.382-8.644-11.594-9.014-0.21162-0.37 7.5763-0.673 17.306-0.673h17.691l1.6093-3.581c2.252-5.011 7.827-14.287 14.087-23.438 15.578-22.774 36.48-44.075 59.961-61.104 6.003-4.3541 23.811-15.14 29.536-17.889 23.565-11.318 42.448-17.684 65.888-22.212 8.604-1.6625 24.904-3.5809 30.506-3.5901 3.864-7e-3 4.835-0.277 5.172-1.4408 0.764-2.642 7.264-21.071 7.815-22.158 0.326-0.64357 2.192 3.6804 4.654 10.785 4.591 13.25 4.155 12.798 12.345 12.814 5.282 0.0102 21.089 2.0776 30.766 4.0243 42.473 8.5434 77.577 25.863 112.97 55.739 8.522 7.193 26.187 26.355 33.779 36.643 6.725 9.112 18.977 28.662 20.572 32.823l0.99 2.586h17.372c9.554 0 17.191 0.316 16.971 0.701-0.221 0.385-5.864 4.829-12.541 9.876-6.677 5.046-12.14 9.5-12.14 9.897 0 0.398 1.182 3.892 2.626 7.765 5.591 14.993 9.731 31.959 12.342 50.57 1.882 13.409 1.829 48.083-0.092 61.612-5.518 38.842-20.421 75.1-43.919 106.85-6.423 8.678-26.775 30.425-35.461 37.89l-7.325 6.295 4.763 12.091c2.62 6.651 4.684 12.197 4.586 12.325s-4.228-2.893-9.177-6.713c-12.78-9.865-11.273-9.403-17.401-5.329-35.641 23.701-74.893 36.842-119.59 40.038-10.686 0.764-20.319 0.857-29.914 0.288zm50.741-6.706c13.27-2.202 19.942-3.631 29.188-6.252 20.415-5.787 43.166-15.755 60.556-26.53 9.354-5.795 10.882-7.074 9.813-8.212-0.399-0.425-10.608-8.358-22.688-17.629-12.079-9.271-25.029-19.233-28.778-22.138-35.859-27.786-83.716-64.319-84.931-64.836-0.477-0.203-3.611 1.775-6.964 4.394-3.353 2.62-10.29 7.963-15.416 11.874-5.125 3.911-18.691 14.304-30.145 23.095-11.455 8.791-23.213 17.794-26.128 20.007-29.373 22.291-59.423 45.568-59.437 46.041-0.02 0.659 14.443 9.827 21.57 13.673 26.093 14.084 55.75 23.62 84.443 27.152 3.957 0.487 8.217 1.035 9.466 1.217 1.25 0.183 12.837 0.222 25.75 0.087 19.115-0.2 25.377-0.561 33.701-1.943zm-186.73-37.695c0.86-0.856 6.851-5.553 13.313-10.44 6.461-4.886 19.071-14.509 28.021-21.385 8.95-6.875 25.985-19.929 37.857-29.009 43.18-33.025 64.089-49.042 68.538-52.505 2.5-1.946 10.508-8.087 17.798-13.647 31.099-23.724 39.335-30.051 45.061-34.615 3.332-2.656 6.528-5.116 7.101-5.466 0.844-0.516 0.516-2.236-1.727-9.057-1.524-4.631-3.026-8.914-3.339-9.519-0.613-1.185-1.795-0.388-18.448 12.453-13.31 10.262-26.061 20.019-43.795 33.511-22.545 17.152-32.846 25.048-44.304 33.959-5.415 4.212-12.572 9.733-15.904 12.269-3.332 2.537-10.83 8.319-16.661 12.85-14.54 11.297-36.063 27.298-36.719 27.298-0.296 0 3.857-13.172 9.23-29.271 15.882-47.59 27.867-83.923 27.867-84.483 0-0.287-1.107-1.224-2.461-2.081-1.354-0.858-4.489-3.148-6.968-5.089-2.478-1.942-4.743-3.531-5.033-3.531s-1.907 4.145-3.593 9.212c-11.254 33.807-16.54 49.592-21.18 63.25-2.907 8.557-9.097 26.795-13.755 40.53-14.657 43.217-19.566 57.1-22.064 62.394-2.0964 4.442-1.7086 5.231 1.1653 2.372zm298.86-4.877c-2.886-7.11-8.137-21.878-16.344-45.97-7.418-21.773-28.513-83.824-33.264-97.844-1.831-5.404-5.395-15.905-7.92-23.335-3.917-11.528-10.864-32.116-30.199-89.491l-3.531-10.478-9.112 0.556c-5.012 0.306-9.153 0.6-9.203 0.653s1.037 3.413 2.415 7.466 9.512 28.371 18.077 54.039c8.564 25.669 16.574 49.618 17.799 53.221 9.793 28.796 34.125 101.88 34.125 102.49 0 0.454-21.907-15.649-28.517-20.962-2.563-2.06-15.486-12.036-28.717-22.168-13.231-10.133-26.575-20.357-29.654-22.721l-5.598-4.299-3.359 2.661c-1.848 1.464-5.235 4.101-7.528 5.86-2.293 1.76-4.168 3.418-4.167 3.685s4.135 3.617 9.187 7.445c5.052 3.827 14.679 11.23 21.393 16.451 11.207 8.713 28.486 21.971 62.192 47.722 19.372 14.799 34.566 26.445 44.683 34.247 4.998 3.855 9.199 6.902 9.335 6.771 0.135-0.132-0.806-2.832-2.093-6.001zm-297.64-17.108c4.332-11.967 29.773-86.581 42.507-124.66 9.065-27.107 11.343-34.585 10.721-35.187-0.349-0.338-6.428-4.977-13.509-10.308s-18.498-13.975-25.37-19.208c-6.873-5.233-25.617-19.414-41.654-31.513-16.036-12.099-32.672-24.691-36.968-27.984-4.2957-3.292-8.0568-5.986-8.358-5.986-0.8831 0-5.9446 14.568-8.8397 25.442-10.635 39.946-10.475 83.799 0.4448 122.13 9.243 32.445 26.285 63.459 49.006 89.183 7.736 8.758 26.587 26.614 28.324 26.829 0.2808 0.035 1.9435-3.898 3.6955-8.739zm308.09 2.259c16.096-13.757 34.305-35.56 46.507-55.684 6.087-10.039 15.95-31.327 19.861-42.869 14.68-43.311 15.485-93.54 2.214-138.1-3.196-10.729-6.82-20.452-7.623-20.452-0.383 0-11.6 8.436-41.925 31.529-9.372 7.138-24.878 18.921-34.458 26.185-9.581 7.265-21.509 16.343-26.507 20.173-4.998 3.831-11.814 9.044-15.147 11.585-3.332 2.54-6.71 5.119-7.506 5.731-1.228 0.943-1.325 1.477-0.64 3.514 0.445 1.321 3.941 11.614 7.769 22.872s9.952 29.312 13.61 40.12c18.205 53.796 18.703 55.244 33.139 96.411 1.066 3.04 2.189 5.527 2.495 5.527 0.305 0 4-2.944 8.211-6.543zm-260.03-48.52c1.83-1.463 7.001-5.424 11.493-8.802 4.491-3.377 19.417-14.827 33.169-25.444s26.463-20.346 28.247-21.619c1.783-1.274 3.146-2.599 3.029-2.946-0.118-0.347-10.097-8.243-22.176-17.547-12.08-9.304-22.501-17.438-23.159-18.076-0.657-0.637-1.382-1.158-1.611-1.158-0.228 0-1.533 3.408-2.898 7.573-1.366 4.166-7.419 22.312-13.452 40.325-13.734 41.011-16.762 50.355-16.32 50.355 0.194 0 1.849-1.197 3.678-2.661zm202.98 0.41c-0.285-0.788-1.644-4.934-3.02-9.212-3.936-12.238-23.673-70.911-26.374-78.402-1.34-3.718-2.8-6.611-3.244-6.429-0.765 0.313-5.455 3.821-21.155 15.825-3.749 2.866-10.817 8.235-15.707 11.931s-8.782 7.085-8.649 7.531c0.133 0.445 8.564 7.199 18.736 15.008s25.909 19.909 34.971 26.889c26.393 20.328 25.465 19.688 24.442 16.859zm-114.65-68.329 7.631-5.896-1.777-1.555c-0.976-0.855-11.955-9.348-24.396-18.872s-26.419-20.24-31.062-23.812c-4.643-3.573-12.19-9.294-16.772-12.714-9.771-7.293-9.747-7.274-23.478-17.807-5.831-4.473-18.952-14.521-29.157-22.328-39.811-30.458-47.68-36.661-46.955-37.006 0.2083-0.099 26.416-0.384 58.239-0.632l57.86-0.452 0.956-2.866c0.525-1.576 1.83-5.422 2.9-8.546 1.069-3.124 1.836-5.797 1.705-5.94-0.132-0.142-40.733-0.165-90.225-0.051l-89.985 0.208 5.5956 4.023c5.1886 3.73 34.69 25.947 79.461 59.839 10.205 7.725 30.653 23.19 45.44 34.367 14.787 11.176 29.782 22.603 33.323 25.392 3.54 2.79 10.527 8.195 15.525 12.011s15.348 11.798 23 17.736c7.651 5.939 14.053 10.798 14.226 10.798s3.748-2.654 7.945-5.897zm13.155-9.68c0.263-0.461 3.436-3 7.05-5.643s14.153-10.648 23.421-17.789 19.726-15.136 23.241-17.767l6.39-4.783-2.915-8.727c-1.603-4.8-5.185-15.543-7.959-23.874-7.741-23.248-14.058-41.891-15.168-44.769l-1.004-2.601-32.816 0.242c-18.049 0.133-33.87 0.29-35.158 0.35-2.072 0.095-2.451 0.509-3.295 3.587-0.524 1.914-3.63 11.402-6.903 21.084-3.274 9.682-8.485 25.157-11.581 34.389-3.097 9.231-5.863 17.397-6.147 18.146-0.388 1.023 0.579 2.187 3.894 4.687 2.426 1.829 6.455 4.922 8.955 6.873 2.499 1.952 13.916 10.657 25.37 19.344 11.455 8.687 21.326 16.311 21.936 16.942 1.317 1.363 2.039 1.446 2.689 0.309zm96.226-43.66c4.356-3.426 31.307-23.975 59.773-45.573 7.498-5.688 23.345-17.713 35.216-26.722 11.872-9.009 26.185-19.807 31.809-23.996 5.623-4.189 10.547-7.938 10.943-8.332 0.411-0.408-55.87-0.715-131.12-0.715h-131.84l-2.74 8.249c-1.508 4.537-2.741 8.59-2.741 9.007 0 0.46 40.221 0.781 102.43 0.818 56.337 0.033 103.87 0.309 105.62 0.614l3.193 0.553-6.601 5.319c-3.63 2.926-9.497 7.554-13.038 10.284-7.951 6.132-45.614 35.028-57.936 44.448-13.341 10.2-14.01 10.765-14.017 11.839-0.012 1.596 5.462 17.767 6.014 17.767 0.278 0 2.542-1.602 5.03-3.56zm-159.59-17.524c5.568-16.224 40.583-120.4 48.915-145.54 7.769-23.436 12.136-35.561 12.603-34.996 0.921 1.1142 17.454 48.845 29.634 85.556l0.747 2.251h9.392c5.166 0 9.393-0.142 9.393-0.317 0-0.369-14.454-43.037-25.965-76.648-11.903-34.753-22.447-64.894-22.857-65.338-0.199-0.2156-0.669 0.4881-1.044 1.5638s-1.886 5.4561-3.358 9.7343c-1.472 4.2781-5.467 15.884-8.876 25.792-3.41 9.9073-12.104 35.515-19.32 56.905-7.216 21.391-15.396 45.524-18.178 53.63s-5.835 17.133-6.783 20.06c-0.948 2.928-4.862 14.534-8.697 25.792-9.517 27.938-13.764 41.338-13.337 42.085 0.198 0.346 1.823 1.696 3.611 3 1.789 1.304 4.749 3.576 6.58 5.049 1.83 1.472 3.406 2.677 3.501 2.677 0.096 0 1.913-5.066 4.039-11.258zm-12.086-33.174c5.419-16.106 10.029-29.592 10.244-29.968s-2.921-0.887-6.968-1.137c-10.171-0.626-74.348-0.559-84.899 0.089l-8.6223 0.53 9.7584 7.402c5.367 4.071 19.301 14.714 30.964 23.651s23.699 18.133 26.747 20.436c3.049 2.304 6.968 5.35 8.71 6.77 1.741 1.42 3.402 2.341 3.69 2.047s4.957-13.713 10.376-29.82zm165.34 25.76c3.453-2.613 11.9-9.119 18.773-14.456 11.287-8.765 18.133-14.013 46.027-35.28l8.539-6.51-10.811-0.544c-8.314-0.418-70.888-0.373-87.794 0.063l-2.764 0.071 2.913 8.393c3.781 10.891 12.77 37.622 15.557 46.261 1.199 3.715 2.428 6.755 2.731 6.755 0.304 0 3.377-2.139 6.829-4.753zm-144.88-86.809c0.7-1.413 5.004-13.95 21.271-61.959 15.99-47.189 21.21-62.85 21.21-63.636 0-1.3836-18.572 0.5141-34.339 3.5089-62.888 11.945-119.06 49.948-154.48 104.52-4.5407 6.995-10.358 17.349-10.358 18.437 0 0.345 35.09 0.627 77.979 0.627 74.757 0 78.009-0.062 78.719-1.496zm78.075 0.558c0-2.031-23.743-71.686-24.854-72.917-0.468-0.5178-6.445 16.671-20.323 58.438-2.643 7.958-4.807 14.682-4.807 14.943s11.247 0.474 24.992 0.474c18.286 0 24.992-0.252 24.992-0.938zm186.3 0.169c0-1.462-9.282-16.866-15.571-25.841-38.591-55.07-98.588-91.245-165.05-99.517-7.08-0.8813-14.529-1.6023-16.553-1.6023-3.204 0-3.609 0.1849-3.14 1.4328 1.37 3.6423 6.989 19.749 10.64 30.5 2.218 6.5298 7.489 22.005 11.714 34.389 4.225 12.384 9.668 28.411 12.095 35.617 2.427 7.205 5.38 15.956 6.562 19.446l2.15 6.345h78.578c48.517 0 78.577-0.294 78.577-0.769z"/>
</svg>
